# xmcd
#
# Track frame offsets:
#	150
#	9701
#	21645
#	31676
#	41758
#	51951
#	60833
#	69773
#	80529
#	90410
#	102947
#	113144
#	125213
#	135545
#	146769
#	156992
#	166817
#	176864
#	187569
#	200149
#	210036
#	223017
#	231845
#	241867
#
# Disc length: 3359 seconds
#
# Revision: 0
# Processed by: cddbd v1.5.2PL0 Copyright (c) Steve Scherf et al.
# Submitted via: EasyCDDAExtractor 11.5.0.1
#
DISCID=470d1d18
DTITLE=Wanda Jackson - The Ultimate Collection CD2  (2007)
DYEAR=1900
DGENRE=Country
TTITLE0=Let's Have A Party
TTITLE1=Hot Dog! That Made Him Mad
TTITLE2=Fujiyama Mama
TTITLE3=Money Honey
TTITLE4=Brown Eyed Handsome Man
TTITLE5=Long Tall Sally
TTITLE6=Hard Headed Woman
TTITLE7=Lonely Weekends
TTITLE8=Memphis, Tennessee
TTITLE9=Whole Lot Of Shakin' Goin' On
TTITLE10=Honey Don't
TTITLE11=Candy Man
TTITLE12=Rip It Up
TTITLE13=Riot In Cell Block Number Nine
TTITLE14=Stupid Cupid
TTITLE15=Slippin' And Slidin'
TTITLE16=My Baby Left Me
TTITLE17=Who Shot Sam
TTITLE18=Kansas City
TTITLE19=Mean, Mean Man
TTITLE20=It Doesn't Matter Anymore
TTITLE21=Jambalaya (On The Bayou)
TTITLE22=Honey Bop
TTITLE23=Yakety-Yak
EXTD=
EXTT0=
EXTT1=
EXTT2=
EXTT3=
EXTT4=
EXTT5=
EXTT6=
EXTT7=
EXTT8=
EXTT9=
EXTT10=
EXTT11=
EXTT12=
EXTT13=
EXTT14=
EXTT15=
EXTT16=
EXTT17=
EXTT18=
EXTT19=
EXTT20=
EXTT21=
EXTT22=
EXTT23=
PLAYORDER=
